# xmcd
#
# Track frame offsets:
#	150
#	11813
#	22048
#	34874
#	47338
#	59521
#	71658
#	85916
#	98469
#	111429
#	125447
#	138667
#	152068
#	162255
#	173381
#	188324
#	201806
#	213460
#	227238
#	239109
#	249332
#	260739
#
# Disc length: 3657 seconds
#
# Revision: 1
# Processed by: cddbd v1.5.2PL0 Copyright (c) Steve Scherf et al.
# Submitted via: EasyCDDAExtractor 10.5.1.1
#
DISCID=320e4716
DTITLE=variious - 2 The RPM Blues Story
DYEAR=1900
DGENRE=Blues
TTITLE0=Morning At Midnight ~ Howlin Wolf
TTITLE1=That s All Right ~ Little Eddie Kirkland
TTITLE2=She Moves Me ~ Johnny Guitar Watson
TTITLE3=Mistreated Woman ~ B.B. King
TTITLE4=Some Old Lonesome Day ~Lowell Fulson
TTITLE5=Lonesome Dog Blues ~Lightnin Hopkins
TTITLE6=Cold, Cold Winter ~ Roscoe Gordon
TTITLE7=Lone Town Blues ~ Junior Brooks
TTITLE8=Good Morning Baby ~ Drifting Slim 
TTITLE9=Left Behind Blues ~ Gene Parrish
TTITLE10=Blues In The Dark ~ Little George Smith
TTITLE11=My Baby Stole Off ~ Howlin Wolf
TTITLE12=Bad Habit Blues ~ Jimmy Nelson
TTITLE13=B.B. Blues ~ B.B. King
TTITLE14=Don t Touch Me ~ Johnny Guitar Watson
TTITLE15=Dream Baby ~ Roscoe Gordon
TTITLE16=Love When It Rains ~Jimmy McCracklin
TTITLE17=Baby Child ~ Jimmy Nelson
TTITLE18=Try Me One More Time ~ Willie Nix
TTITLE19=Jumpin Blues ~ Mumbles
TTITLE20=Early In The Morning ~ B.B. King
TTITLE21=Jake Head Boogie ~ Lightnin Hopkins
EXTD=
EXTT0=
EXTT1=
EXTT2=
EXTT3=
EXTT4=
EXTT5=
EXTT6=
EXTT7=
EXTT8=
EXTT9=
EXTT10=
EXTT11=
EXTT12=
EXTT13=
EXTT14=
EXTT15=
EXTT16=
EXTT17=
EXTT18=
EXTT19=
EXTT20=
EXTT21=
PLAYORDER=
